<svg width="40" height="14" viewBox="0 0 40 14" fill="none" xmlns="http://www.w3.org/2000/svg">
<path d="M3.63 13.68V0.519989H4.526V13.68H3.63ZM3.98001 12.112C3.23401 12.112 2.52001 12 1.83801 11.776C1.15701 11.543 0.619997 11.244 0.227997 10.88L0.746002 9.78799C1.12 10.115 1.59601 10.385 2.17401 10.6C2.75301 10.815 3.35501 10.922 3.98001 10.922C4.55001 10.922 5.012 10.857 5.366 10.726C5.721 10.595 5.98199 10.418 6.14999 10.194C6.31799 9.961 6.40201 9.699 6.40201 9.41C6.40201 9.074 6.29001 8.80299 6.06601 8.59799C5.85201 8.39299 5.56701 8.229 5.21201 8.108C4.86701 7.977 4.484 7.865 4.064 7.772C3.644 7.679 3.22001 7.57101 2.79001 7.45001C2.37001 7.31901 1.98299 7.15599 1.62799 6.95999C1.28299 6.76399 1.00299 6.50299 0.787994 6.17599C0.573994 5.83999 0.466003 5.411 0.466003 4.888C0.466003 4.384 0.597002 3.92201 0.858002 3.50201C1.129 3.07301 1.54 2.73201 2.09 2.48001C2.65 2.21901 3.35999 2.08801 4.21799 2.08801C4.78799 2.08801 5.35199 2.16301 5.91199 2.31201C6.47199 2.46101 6.95801 2.67599 7.36801 2.95599L6.90601 4.07599C6.48601 3.79599 6.04299 3.595 5.57599 3.474C5.10999 3.343 4.65699 3.27802 4.21799 3.27802C3.66799 3.27802 3.21499 3.34801 2.85999 3.48801C2.50599 3.62801 2.24399 3.815 2.07599 4.048C1.91799 4.281 1.83801 4.543 1.83801 4.832C1.83801 5.177 1.946 5.45299 2.16 5.65799C2.384 5.86299 2.66901 6.02701 3.01401 6.14801C3.36901 6.26901 3.75599 6.38101 4.17599 6.48401C4.59599 6.57701 5.016 6.685 5.436 6.806C5.866 6.927 6.25299 7.08601 6.59799 7.28201C6.95299 7.47801 7.238 7.73901 7.452 8.06601C7.667 8.39301 7.77399 8.81299 7.77399 9.32599C7.77399 9.82099 7.63901 10.283 7.36801 10.712C7.09801 11.132 6.678 11.473 6.108 11.734C5.548 11.986 4.83901 12.112 3.98001 12.112ZM13.833 12V2.76001L14.435 3.418H11.621V2.20001H15.219V12H13.833ZM20.227 12.112C19.536 12.112 18.864 12.005 18.211 11.79C17.567 11.575 17.04 11.286 16.629 10.922L17.273 9.81601C17.6 10.124 18.024 10.376 18.547 10.572C19.07 10.768 19.625 10.866 20.213 10.866C20.96 10.866 21.534 10.707 21.935 10.39C22.336 10.073 22.537 9.648 22.537 9.116C22.537 8.752 22.448 8.435 22.271 8.164C22.094 7.893 21.786 7.688 21.347 7.548C20.918 7.399 20.325 7.32401 19.569 7.32401H17.343L17.861 2.20001H23.391V3.418H18.379L19.107 2.73199L18.701 6.77802L17.973 6.10599H19.863C20.843 6.10599 21.632 6.23201 22.229 6.48401C22.826 6.73601 23.26 7.086 23.531 7.534C23.802 7.973 23.937 8.481 23.937 9.06C23.937 9.62 23.802 10.133 23.531 10.6C23.26 11.057 22.85 11.426 22.299 11.706C21.758 11.977 21.067 12.112 20.227 12.112ZM27.98 2.08801C28.867 2.08801 29.613 2.27899 30.22 2.66199C30.836 3.04499 31.303 3.6 31.62 4.328C31.937 5.047 32.096 5.929 32.096 6.974C32.096 8.085 31.9 9.02299 31.508 9.78799C31.116 10.553 30.575 11.132 29.884 11.524C29.193 11.916 28.386 12.112 27.462 12.112C27.005 12.112 26.561 12.065 26.132 11.972C25.712 11.879 25.343 11.734 25.026 11.538L25.558 10.446C25.819 10.614 26.109 10.735 26.426 10.81C26.753 10.875 27.093 10.908 27.448 10.908C28.437 10.908 29.226 10.6 29.814 9.98401C30.402 9.35901 30.696 8.43501 30.696 7.21201C30.696 7.01601 30.687 6.78299 30.668 6.51199C30.649 6.24099 30.607 5.97499 30.542 5.71399L31.004 6.19C30.873 6.619 30.654 6.98301 30.346 7.28201C30.047 7.57101 29.683 7.791 29.254 7.94C28.834 8.08 28.372 8.14999 27.868 8.14999C27.224 8.14999 26.65 8.02901 26.146 7.78601C25.642 7.54301 25.245 7.20301 24.956 6.76401C24.667 6.31601 24.522 5.78901 24.522 5.18201C24.522 4.54701 24.671 4.00101 24.97 3.54401C25.278 3.07701 25.693 2.718 26.216 2.466C26.748 2.214 27.336 2.08801 27.98 2.08801ZM28.036 3.22198C27.616 3.22198 27.243 3.30099 26.916 3.45999C26.589 3.61899 26.333 3.83801 26.146 4.11801C25.969 4.39801 25.88 4.73401 25.88 5.12601C25.88 5.70501 26.081 6.16699 26.482 6.51199C26.883 6.84799 27.425 7.01599 28.106 7.01599C28.554 7.01599 28.946 6.93201 29.282 6.76401C29.627 6.59601 29.893 6.367 30.08 6.078C30.276 5.789 30.374 5.467 30.374 5.112C30.374 4.767 30.285 4.45401 30.108 4.17401C29.931 3.89401 29.669 3.66501 29.324 3.48801C28.979 3.31101 28.549 3.22198 28.036 3.22198ZM36.002 12.112C35.311 12.112 34.639 12.005 33.986 11.79C33.342 11.575 32.815 11.286 32.404 10.922L33.048 9.81601C33.375 10.124 33.799 10.376 34.322 10.572C34.845 10.768 35.405 10.866 36.002 10.866C36.73 10.866 37.295 10.712 37.696 10.404C38.107 10.087 38.312 9.662 38.312 9.13C38.312 8.617 38.116 8.20601 37.724 7.89801C37.341 7.58101 36.73 7.422 35.89 7.422H35.106V6.44199L38.018 2.858L38.214 3.418H32.852V2.20001H39.32V3.15201L36.422 6.72198L35.694 6.28799H36.156C37.341 6.28799 38.228 6.554 38.816 7.086C39.413 7.618 39.712 8.295 39.712 9.116C39.712 9.667 39.577 10.171 39.306 10.628C39.035 11.085 38.625 11.449 38.074 11.72C37.533 11.981 36.842 12.112 36.002 12.112Z" fill="#040402"/>
</svg>
