<svg width="15" height="11" viewBox="0 0 15 11" fill="none" xmlns="http://www.w3.org/2000/svg">
<path d="M8.82501 6.82503C8.65301 7.00903 8.446 7.15702 8.216 7.25902C7.986 7.36202 7.73799 7.417 7.48599 7.421C7.23499 7.426 6.98401 7.38002 6.75101 7.28502C6.51801 7.19102 6.30501 7.051 6.12701 6.873C5.94901 6.695 5.809 6.48201 5.715 6.24901C5.62 6.01601 5.57401 5.76502 5.57901 5.51402C5.58301 5.26202 5.638 5.01401 5.741 4.78401C5.843 4.55401 5.99099 4.347 6.17499 4.175M11.213 9.21303C10.144 10.027 8.843 10.478 7.5 10.5C3.125 10.5 0.625 5.50001 0.625 5.50001C1.402 4.05101 2.48099 2.78501 3.78699 1.78801L11.213 9.21303ZM6.18701 0.650009C6.61801 0.549009 7.058 0.499015 7.5 0.500015C11.875 0.500015 14.375 5.50001 14.375 5.50001C13.996 6.21001 13.543 6.878 13.025 7.494L6.18701 0.650009Z" stroke="#5C5C5C" stroke-linecap="round" stroke-linejoin="round"/>
</svg>
